HIERARCHY
ROOT ui
{
	 OFFSET 0 0 0
	 CHANNELS 3 XPosition YPosition Z Position
	 EndSite
	 {
	 OFFSET 0 -1 0
	 }
}
ROOT li
{
	 OFFSET 0 0 0
	 CHANNELS 3 XPosition YPosition Z Position
	 EndSite
	 {
	 OFFSET 0 -1 0
	 }
}
ROOT ul
{
	 OFFSET 0 0 0
	 CHANNELS 3 XPosition YPosition Z Position
	 EndSite
	 {
	 OFFSET 0 -1 0
	 }
}
ROOT ll
{
	 OFFSET 0 0 0
	 CHANNELS 3 XPosition YPosition Z Position
	 EndSite
	 {
	 OFFSET 0 -1 0
	 }
}
ROOT tt
{
	 OFFSET 0 0 0
	 CHANNELS 3 XPosition YPosition Z Position
	 EndSite
	 {
	 OFFSET 0 -1 0
	 }
}
ROOT tb
{
	 OFFSET 0 0 0
	 CHANNELS 3 XPosition YPosition Z Position
	 EndSite
	 {
	 OFFSET 0 -1 0
	 }
}
ROOT td
{
	 OFFSET 0 0 0
	 CHANNELS 3 XPosition YPosition Z Position
	 EndSite
	 {
	 OFFSET 0 -1 0
	 }
}
ROOT v
{
	 OFFSET 0 0 0
	 CHANNELS 3 XPosition YPosition Z Position
	 EndSite
	 {
	 OFFSET 0 -1 0
	 }
}
ROOT bn
{
	 OFFSET 0 0 0
	 CHANNELS 3 XPosition YPosition Z Position
	 EndSite
	 {
	 OFFSET 0 -1 0
	 }
}
MOTION
Frames: 21
Frame Time: 0.002
5.026370286941529E-4	2.1050000190734862E-4	0		0.39352001953125	-2.41364404296875	0		-1.0414505615234375	-0.09486554718017579	0		-0.7146107177734375	-2.42208544921875	0		0.8105484008789062	-0.6285365600585937	0		2.321628173828125	0.42211276245117185	0		3.7497734375	0.5355098266601562	0		5.1409375	0.32999993896484375	0		-0.25724578857421876	5.9049345703125	0		
0.02300294303894043	-0.002474139928817749	0		0.39071261596679685	-2.415138916015625	0		-1.0419327392578126	-0.09419064331054687	0		-0.725322265625	-2.413357421875	0		0.806957275390625	-0.632076904296875	0		2.326156005859375	0.4162958679199219	0		3.7583642578125	0.534465576171875	0		5.137685546875	0.3160426025390625	0		-0.2228798828125	5.91117724609375	0		
-4.5126301050186157E-4	0.0013100910186767578	0		0.38991229248046877	-2.4146279296875	0		-1.042429443359375	-0.09349213409423827	0		-0.6941923828125	-2.420013427734375	0		0.8063901977539063	-0.6316203002929688	0		2.312785400390625	0.4226806945800781	0		3.765949462890625	0.5344577026367188	0		5.1402392578125	0.3296826171875	0		-0.22358103942871094	5.9127783203125	0		
-0.0030579259395599363	-0.0090848970413208	0		0.38707525634765627	-2.4170732421875	0		-1.118925537109375	-0.09102009582519531	0		-0.73399853515625	-2.418952880859375	0		0.8058114013671875	-0.6311390380859375	0		2.30234228515625	0.4230679931640625	0		3.7785791015625	0.5404302368164062	0		5.13987548828125	0.3296112365722656	0		-0.2213407897949219	5.91137158203125	0		
0.003499589920043945	-0.0015499119758605956	0		0.39923260498046875	-2.419646484375	0		-1.103519287109375	-0.09743604278564454	0		-0.719841552734375	-2.42140673828125	0		0.8142010498046875	-0.6327243041992188	0		2.332922119140625	0.4270753784179688	0		3.769255859375	0.5526553955078125	0		5.13950244140625	0.3296082153320313	0		-0.20601731872558593	5.92185302734375	0		
-0.0019847559928894043	0.003125396013259888	0		0.3935504150390625	-2.40601904296875	0		-1.1040560302734375	-0.09667889404296875	0		-0.7285542602539062	-2.41061474609375	0		0.8147323608398438	-0.6192073974609374	0		2.315459228515625	0.4285941162109375	0		3.772857666015625	0.5587886352539062	0		5.13634765625	0.34877880859375	0		-0.22192454528808594	5.913666015625	0		
0.002435072898864746	-2.809230089187622E-4	0		0.41363217163085936	-2.415634765625	0		-1.0405068359375	-0.08656629180908203	0		-0.736440673828125	-2.416814453125	0		0.7921441040039062	-0.6164299926757812	0		2.31091796875	0.4240152893066406	0		3.768382568359375	0.5590428466796875	0		5.12669140625	0.35089013671875	0		-0.22178729248046875	5.9143359375	0		
-0.002159940004348755	-0.00357559609413147	0		0.3858482360839844	-2.411735595703125	0		-1.1092012939453124	-0.09808222198486329	0		-0.739278076171875	-2.418049560546875	0		0.8033876953125	-0.628976318359375	0		2.314358154296875	0.41938629150390627	0		3.771951904296875	0.565254638671875	0		5.132650390625	0.3371219482421875	0		-0.22169723510742187	5.91502392578125	0		
-0.006676130771636963	0.002149066925048828	0		0.4099769287109375	-2.416354736328125	0		-1.0337945556640624	-0.0990821304321289	0		-0.7421170654296875	-2.41926953125	0		0.8027542724609374	-0.62837646484375	0		2.31393798828125	0.42982958984375	0		3.77543115234375	0.564506103515625	0		5.12296630859375	0.33766903686523436	0		-0.22165509033203126	5.9157294921875	0		
-0.003312201976776123	-0.002190737962722778	0		0.3931267700195312	-2.4185234375	0		-1.1063409423828126	-0.09351739501953125	0		-0.7330218505859375	-2.426600830078125	0		0.8021097412109375	-0.6277532958984375	0		2.317343505859375	0.4252629699707031	0		3.784040283203125	0.57774267578125	0		5.1374609375	0.3238376159667969	0		-0.22067066955566406	5.9154423828125	0		
1.3348299264907837E-4	0.002487147092819214	0		0.41239080810546874	-2.410053466796875	0		-1.0309505615234376	-0.09350624847412109	0		-0.741735595703125	-2.4157275390625	0		0.8044976196289062	-0.6231392211914063	0		2.316786376953125	0.4257691955566406	0		3.78356103515625	0.5841129150390625	0		5.12499658203125	0.34537667846679687	0		-0.2547823944091797	5.910546875	0		
-0.008463127136230469	0.004312620162963867	0		0.3825736083984375	-2.409037841796875	0		-1.0315667724609374	-0.0926766586303711	0		-0.7096322631835937	-2.422278076171875	0		0.816812744140625	-0.6246100463867188	0		2.32126904296875	0.4312518005371094	0		3.799927734375	0.5773386840820313	0		5.1423876953125	0.34545452880859373	0		-0.2208107452392578	5.91694189453125	0		
-0.008166159629821777	-0.0029391798973083497	0		0.4156146850585937	-2.4216796875	0		-1.036234130859375	-0.09578978729248047	0		-0.751468505859375	-2.4230166015625	0		0.7901569213867188	-0.6226376953125	0		2.2896357421875	0.4271542663574219	0		3.799424072265625	0.5837817993164063	0		5.13902880859375	0.3323023681640625	0		-0.22093771362304687	5.9177177734375	0		
-0.005754350185394287	8.041009902954101E-4	0		0.387828125	-2.4186416015625	0		-1.108814208984375	-0.090146484375	0		-0.7163026733398438	-2.424575439453125	0		0.8214092407226562	-0.6292732543945313	0		2.315047119140625	0.42746658325195314	0		3.8078486328125	0.5841617431640626	0		5.1349599609375	0.3209687805175781	0		-0.20598684692382813	5.92834619140625	0		
0.01659252738952637	-0.0016558289527893067	0		0.4259397277832031	-2.426306396484375	0		-1.1034840087890625	-0.09333756256103516	0		-0.7411326904296875	-2.426465576171875	0		0.8047227783203125	-0.6303654174804687	0		2.33256884765625	0.4378888854980469	0		3.811416015625	0.5976273193359375	0		5.15596484375	0.333253173828125	0		-0.20418844604492187	5.92713232421875	0		
0.0050484189987182616	0.005273129940032959	0		0.4012366943359375	-2.418262451171875	0		-1.09693603515625	-0.07752957916259766	0		-0.6689745483398437	-2.431412841796875	0		0.8290546264648437	-0.63089013671875	0		2.3099345703125	0.4337772216796875	0		3.819912841796875	0.6040675048828125	0		5.14622119140625	0.3273841247558594	0		-0.2555450439453125	5.91352099609375	0		
0.01941519355773926	0.0029297540187835694	0		0.4144850158691406	-2.41662158203125	0		-1.1106622314453125	-0.08748638153076171	0		-0.756642822265625	-2.4215751953125	0		0.793459716796875	-0.625732421875	0		2.309364501953125	0.4344456787109375	0		3.83228662109375	0.5984899291992187	0		5.14723095703125	0.33166146850585937	0		-0.2206817169189453	5.9199716796875	0		
-0.003213798999786377	1.2773999944329261E-5	0		0.42163064575195314	-2.42589990234375	0		-1.1112535400390624	-0.08657714080810547	0		-0.6884901733398437	-2.43046142578125	0		0.859829345703125	-0.6256968383789062	0		2.31768310546875	0.42403387451171876	0		3.822807373046875	0.605180419921875	0		5.152458984375	0.32029949951171877	0		-0.2208963165283203	5.91982373046875	0		
0.015133037567138671	-0.0063515610694885255	0		0.4188728332519531	-2.42805419921875	0		-1.1058775634765625	-0.0897261962890625	0		-0.752244384765625	-2.431859375	0		0.7801997680664062	-0.6260110473632813	0		2.3082607421875	0.43583935546875	0		3.848337890625	0.6114981689453125	0		5.1569736328125	0.30726516723632813	0		-0.22011213684082032	5.91967529296875	0		
-0.016382989883422853	-0.0011427890062332153	0		0.39222183227539065	-2.421926513671875	0		-1.1005029296875	-0.09386839294433594	0		-0.6800151977539063	-2.43678173828125	0		0.7985525512695313	-0.6294142456054688	0		2.303667724609375	0.4316046447753906	0		3.838744384765625	0.606227294921875	0		5.1630751953125	0.3270917053222656	0		-0.23926039123535156	5.92576220703125	0		
0.021081106185913086	0.0012925570011138917	0		0.42152191162109376	-2.421423828125	0		-1.0938941650390626	-0.07801742553710937	0		-0.7536524047851563	-2.4300439453125	0		0.7879829711914063	-0.6264801025390625	0		2.31606787109375	0.4261892700195313	0		3.851222900390625	0.6067216186523438	0		5.16905322265625	0.319267333984375	0		-0.2195504608154297	5.919416015625	0		
